<?xml version="1.0" standalone="no"?>
<!DOCTYPE svg PUBLIC "-//W3C//DTD SVG 1.1//EN" "http://www.w3.org/Graphics/SVG/1.1/DTD/svg11.dtd" >
<svg xmlns="http://www.w3.org/2000/svg">
<metadata></metadata>
<defs>
<font id="zonapro-semibold" horiz-adv-x="1372" >
<font-face units-per-em="2048" ascent="1642" descent="-406" />
<missing-glyph horiz-adv-x="659" />
<glyph unicode="&#xfb01;" horiz-adv-x="1288" d="M-27 -178q4 0 22 -1t23 -1q108 0 150.5 56t42.5 196v841h-166v197h166v82q0 364 393 364q105 0 182 -22v-180q-70 12 -129 12q-113 0 -156.5 -52.5t-43.5 -164.5v-39h686v-1110h-244v913h-442v-954q0 -161 -92 -252.5t-238 -91.5q-91 0 -154 14v193zM877 1399 q0 60 41.5 101.5t101.5 41.5t101.5 -41.5t41.5 -101.5t-41.5 -101t-101.5 -41q-59 0 -101 42t-42 100z" />
<glyph unicode="&#xfb02;" horiz-adv-x="1314" d="M-27 -180q140 0 189 49q49 46 49 203v841h-166v197h166q0 446 483 446q211 0 342 -110q135 -111 135 -320v-1126h-245v1061q0 165 -56 231t-176 66q-128 0 -182.5 -56.5t-54.5 -191.5h317v-197h-317v-956q0 -173 -99.5 -257.5t-271.5 -84.5q-64 0 -113 14v191z" />
<glyph unicode="&#xfb03;" horiz-adv-x="2093" d="M-27 -178q4 0 22 -1t23 -1q108 0 150.5 56t42.5 196v841h-166v197h166v49q0 346 362 346q113 0 213 -32v-181q-94 15 -170 15q-91 0 -125 -37t-34 -129v-31h534v80q0 206 99 285q98 79 264 79q113 0 213 -32v-181q-76 13 -129 13q-118 0 -160.5 -48t-42.5 -159v-37h715 v-1110h-246v913h-469v-917q0 -162 -91 -253t-237 -91q-90 0 -153 14v193q10 -2 45 -2q108 0 150 55.5t42 196.5v804h-534v-954q0 -161 -92 -252.5t-238 -91.5q-91 0 -154 14v193zM1683 1399q0 60 42 101.5t102 41.5t100.5 -41.5t40.5 -101.5q0 -59 -41.5 -100.5t-99.5 -41.5 q-60 0 -102 41t-42 101z" />
<glyph unicode="&#xfb04;" horiz-adv-x="2095" d="M-27 -180q140 0 189 49q49 46 49 203v841h-166v197h166v55q0 162 92 254t238 92q135 0 245 -38v-181q-94 15 -170 15q-159 0 -159 -152v-45h534v66q0 175 127.5 277.5t356.5 102.5q71 0 137.5 -14.5t129 -47.5t108.5 -81.5t74 -122t28 -164.5v-1126h-246v1061 q0 297 -231 297q-240 0 -240 -187v-61h319v-197h-319v-919q0 -161 -91 -252.5t-237 -91.5q-90 0 -153 14v193q4 0 22 -1t23 -1q108 0 150 55.5t42 195.5v807h-534v-956q0 -161 -92 -252.5t-238 -91.5q-72 0 -154 16v191z" />
<glyph horiz-adv-x="0" />
<glyph horiz-adv-x="682" />
<glyph unicode=" "  horiz-adv-x="659" />
<glyph unicode="&#x09;" horiz-adv-x="659" />
<glyph unicode="&#xa0;" horiz-adv-x="659" />
<glyph unicode="!" horiz-adv-x="534" d="M127 127q0 59 41 100q41 43 100.5 43t100.5 -43q43 -41 43 -100t-43 -100q-41 -41 -100.5 -41t-100.5 41t-41 100zM141 1442h252l-41 -987h-168z" />
<glyph unicode="&#x22;" horiz-adv-x="845" d="M72 799l39 635h266l-176 -635h-129zM481 799l41 635h266l-176 -635h-131z" />
<glyph unicode="#" horiz-adv-x="1411" d="M61 354v205h267l59 342h-260v205h295l53 313h180l-53 -313h322l51 313h182l-53 -313h246v-205h-279l-59 -342h272v-205h-305l-61 -356h-181l60 356h-320l-59 -356h-185l62 356h-234zM512 559h319l58 342h-320z" />
<glyph unicode="$" horiz-adv-x="1331" d="M102 119l95 190q206 -104 424 -110v422q-126 31 -204 59.5t-149 73.5q-147 94 -147 284q0 180 135 297q134 116 365 125v82h116v-86q244 -18 451 -113l-103 -194q-151 68 -348 90v-408q251 -58 379 -151q129 -88 129 -268q0 -191 -139 -306q-137 -113 -369 -122v-129 h-116v129q-153 3 -261 30q-102 26 -258 105zM375 1057q0 -71 58 -115t188 -82v385q-114 -1 -180 -53t-66 -135zM737 199q118 5 185 54.5t67 135.5q0 75 -58.5 118.5t-193.5 82.5v-391z" />
<glyph unicode="%" horiz-adv-x="1841" d="M84 1057q0 186 104 293q105 108 261 108q155 0 260 -108q104 -107 104 -293t-104 -293q-106 -109 -260 -109q-155 0 -261 109q-104 107 -104 293zM248 1057q0 -105 58 -173.5t143 -68.5t142.5 68.5t57.5 173.5q0 107 -57 175t-143 68t-143.5 -68t-57.5 -175zM334 0 l989 1436h182l-989 -1436h-182zM1028 385q0 185 105 293t260 108t260 -108q104 -107 104 -293t-104 -293q-103 -106 -260 -106t-260 106q-105 108 -105 293zM1192 385q0 -105 58 -173.5t143 -68.5t142.5 68.5t57.5 173.5q0 108 -57 176t-143 68t-143.5 -68.5t-57.5 -175.5z " />
<glyph unicode="&#x26;" horiz-adv-x="1409" d="M74 391q0 254 309 385q-141 144 -141 303q0 174 110 275q113 104 283 104q181 0 291 -104q112 -100 112 -252q0 -125 -84.5 -231.5t-240.5 -165.5l284 -279q68 74 187 260l176 -57q-4 -13 -55 -90q-85 -139 -175 -244l181 -176l-148 -133l-168 166q-190 -166 -377 -166 q-262 0 -403 107t-141 298zM317 399q0 -95 82 -158t219 -63q130 0 246 107l-348 346q-199 -79 -199 -232zM449 1071q0 -61 49 -141q5 -8 24 -30l19 -23q4 -3 47 -46q246 83 246 248q0 87 -54.5 145t-144.5 58q-79 0 -132.5 -62t-53.5 -149z" />
<glyph unicode="'" horiz-adv-x="477" d="M92 799l39 635h270l-174 -635h-135z" />
<glyph unicode="(" horiz-adv-x="849" d="M109 614q0 277 153 498.5t434 366.5l82 -138q-212 -129 -325 -313.5t-113 -413.5t113 -414t325 -311l-82 -137q-281 143 -434 364t-153 498z" />
<glyph unicode=")" horiz-adv-x="849" d="M74 -111q212 126 325 311t113 414q0 464 -438 727l82 138q281 -145 434 -366.5t153 -498.5t-153 -498t-434 -364z" />
<glyph unicode="*" horiz-adv-x="854" d="M86 946l242 125l-242 127l64 109l229 -146l-12 273h127l-13 -273l230 148l63 -111l-242 -125l242 -127l-63 -108l-230 145l13 -272h-127l12 272l-229 -147z" />
<glyph unicode="+" horiz-adv-x="1310" d="M141 659v203h416v414h201v-414h416v-203h-416v-413h-201v413h-416z" />
<glyph unicode="," horiz-adv-x="456" d="M18 -162q56 3 117 43q62 38 68 107q-52 8 -85.5 47.5t-33.5 95.5t42.5 97.5t98.5 41.5q19 0 39 -5.5t46 -22t42.5 -55t16.5 -95.5q0 -80 -22 -144.5t-55.5 -103.5t-76.5 -64.5t-82.5 -35.5t-77.5 -10z" />
<glyph unicode="-" horiz-adv-x="835" d="M90 580v202h655v-202h-655z" />
<glyph unicode="." horiz-adv-x="446" d="M80 127q0 59 41 100q41 43 100.5 43t100.5 -43q43 -41 43 -100t-43 -102q-41 -41 -100.5 -41t-100.5 41q-41 43 -41 102z" />
<glyph unicode="/" horiz-adv-x="995" d="M-68 -262l908 1896h204l-907 -1896h-205z" />
<glyph unicode="0" horiz-adv-x="1495" d="M92 721q0 335 189 536q187 199 469 199t469 -199q188 -200 188 -536q0 -337 -188 -537q-186 -198 -469 -198t-469 198q-189 201 -189 537zM344 721q0 -224 117 -365q120 -141 289 -141q171 0 288 141t117 365q0 223 -117 364q-118 142 -288 142q-168 0 -289 -142 q-117 -141 -117 -364z" />
<glyph unicode="1" horiz-adv-x="823" d="M47 1341l459 103h125v-1444h-254v1204l-281 -61z" />
<glyph unicode="2" horiz-adv-x="1277" d="M86 0v94q76 114 201 213q118 93 229 150q178 94 240 137q150 104 180 233q8 36 8 76q0 140 -94 234q-93 96 -221 96q-121 0 -219 -88t-101 -240v-16h-223v33q0 229 162 381q162 155 385 155q219 0 385 -158q164 -156 164 -380q0 -137 -50 -245.5t-137 -176.5 q-80 -62 -166 -111q-30 -17 -88 -47t-82 -43q-88 -48 -124 -84h653v-213h-1102z" />
<glyph unicode="3" horiz-adv-x="1263" d="M92 82l92 192q189 -77 439 -77q143 0 231 67t88 176q0 100 -82 176q-83 77 -270 80h-96l-45 107l344 428h-650v213h1012v-115l-379 -477q192 -31 302 -137.5t110 -270.5q0 -213 -158 -338q-155 -122 -416 -122q-173 0 -282 20q-119 22 -240 78z" />
<glyph unicode="4" horiz-adv-x="1370" d="M47 446l860 998h193v-901h207v-209h-207v-334h-246v334h-760zM401 543h453v522z" />
<glyph unicode="5" horiz-adv-x="1275" d="M96 76l90 194q186 -73 443 -73q143 0 232 74t89 192q0 110 -78 194t-231 84q-97 0 -211 -20q-107 -16 -162 -35l-104 59l12 697h954v-211h-741l-2 -346q146 47 326 47q226 0 352 -135q129 -135 129 -353q0 -215 -156 -338q-155 -122 -417 -122q-171 0 -285 18 q-112 18 -240 74z" />
<glyph unicode="6" horiz-adv-x="1357" d="M106 633q0 423 166 622q170 203 439 203q263 0 487 -149l-108 -183q-168 119 -365 119q-180 0 -287 -131q-106 -130 -106 -344q59 71 174 117q121 47 237 47q77 0 150 -16.5t141 -53t119.5 -89.5t82 -131.5t30.5 -172.5q0 -223 -168 -354t-418 -131q-241 0 -408 182 q-166 181 -166 465zM360 477q0 -100 97 -188q95 -86 223 -86q141 0 242 78q98 76 98 194q0 106 -96 178q-97 72 -236 72q-130 0 -231 -72q-97 -72 -97 -176z" />
<glyph unicode="7" horiz-adv-x="1218" d="M98 1231v213h1057v-117l-676 -1327h-272l629 1231h-738z" />
<glyph unicode="8" horiz-adv-x="1296" d="M76 418q0 122 73 220t197 142q-82 31 -136 114t-54 179q0 192 139 287q137 98 356 98q218 0 355 -98q139 -95 139 -287q0 -96 -52.5 -176t-138.5 -117q124 -43 197.5 -140.5t73.5 -221.5q0 -209 -162 -322q-162 -110 -412 -110q-251 0 -413 110q-162 113 -162 322z M317 424q0 -101 94 -161t240 -60q144 0 238 60t94 161q0 108 -91 169.5t-241 61.5q-152 0 -243 -61t-91 -170zM377 1067q0 -95 73.5 -147t200.5 -52q125 0 199 52t74 147q0 80 -77 128t-196 48t-196.5 -48t-77.5 -128z" />
<glyph unicode="9" horiz-adv-x="1355" d="M100 971q0 229 164 358t414 129q241 0 405 -182q166 -181 166 -465q0 -431 -162 -629q-163 -196 -440 -196q-263 0 -487 149l110 182q164 -118 363 -118q184 0 291 131q108 132 108 344q-37 -63 -155 -115q-119 -49 -234 -49q-101 0 -194.5 27.5t-173 81t-127.5 145 t-48 207.5zM346 969q0 -115 94 -183.5t238 -68.5q128 0 223 71q96 72 96 179q0 108 -98 190q-101 84 -221 84q-143 0 -237.5 -75.5t-94.5 -196.5z" />
<glyph unicode=":" horiz-adv-x="503" d="M104 127q0 59 41 100q43 43 102.5 43t100.5 -43q43 -41 43 -100t-43 -102q-41 -41 -100.5 -41t-102.5 41q-41 43 -41 102zM104 966.5q0 59.5 41 100.5q43 41 102.5 41t100.5 -41q43 -41 43 -100.5t-43 -102.5q-41 -41 -100.5 -41t-102.5 41q-41 43 -41 102.5z" />
<glyph unicode=";" horiz-adv-x="501" d="M43 -162q71 1 121 44t61 106q-51 8 -85 46.5t-34 92.5q0 60 41.5 101.5t98.5 41.5q67 0 106 -45.5t39 -126.5q0 -106 -33 -186t-105 -128.5t-175 -49.5zM104 967q0 60 42 100.5t102 40.5t101.5 -42t41.5 -99q0 -60 -41.5 -102t-101.5 -42t-102 42t-42 102z" />
<glyph unicode="&#x3c;" horiz-adv-x="1284" d="M125 659v115l999 492v-232l-671 -317l671 -318v-229z" />
<glyph unicode="=" horiz-adv-x="1292" d="M150 330v205h989v-205h-989zM150 915v205h989v-205h-989z" />
<glyph unicode="&#x3e;" horiz-adv-x="1286" d="M168 170v229l672 318l-672 317v232l1001 -492v-115z" />
<glyph unicode="?" horiz-adv-x="1105" d="M27 1354q119 61 221 82q110 22 260 22q242 0 384 -124.5t142 -340.5q0 -168 -125 -278q-124 -109 -342 -109l-10 -188h-174l-14 284l24 58h84q155 0 245.5 62.5t90.5 172.5q0 115 -83 183.5t-214 68.5q-232 0 -405 -84zM326 127q0 59 41 100q43 43 102 43t100 -43 q43 -41 43 -100t-43 -102q-41 -41 -100 -41t-102 41q-41 43 -41 102z" />
<glyph unicode="@" horiz-adv-x="1976" d="M94 584q0 374 264 635q264 264 637 264t635 -262q264 -261 264 -633q0 -203 -129 -344q-131 -140 -317 -140q-120 0 -187 55.5t-75 155.5q-62 -92 -151.5 -145t-186.5 -53q-177 0 -289 127q-108 129 -108 305q0 212 137 377q138 166 332 166q107 0 189.5 -56t121.5 -151 l26 166l199 -31q-86 -442 -86 -602q0 -199 133 -199q137 0 211 111q74 115 74 256q0 329 -232 561q-231 231 -561 231q-332 0 -565 -233q-231 -231 -231 -561q0 -332 231 -566q234 -231 565 -231q308 0 521 186l69 -71q-254 -219 -590 -219q-373 0 -637 264t-264 637z M670 575q0 -104 62.5 -174.5t156.5 -70.5q107 0 190 92q83 95 86 225q0 100 -63 169t-156 69q-110 0 -194 -90q-82 -88 -82 -220z" />
<glyph unicode="A" horiz-adv-x="1550" d="M29 0l682 1444h129l682 -1444h-265l-143 319h-680l-139 -319h-266zM524 524h502l-252 566z" />
<glyph unicode="B" horiz-adv-x="1445" d="M158 0v1444h612q131 0 223 -86t92 -211q0 -147 -106 -234q175 -21 281 -151q108 -132 108 -305q0 -192 -117 -324q-115 -133 -319 -133h-774zM403 213h396q150 0 227.5 71.5t77.5 196.5q0 116 -80.5 194.5t-222.5 78.5h-398v-541zM403 938h310q70 0 108.5 42t38.5 103 q0 64 -49.5 106t-130.5 42h-277v-293z" />
<glyph unicode="C" horiz-adv-x="1529" d="M96 721q0 307 223 520q224 217 539 217q176 0 331.5 -73t262.5 -203l-195 -160q-70 95 -174.5 150t-224.5 55q-209 0 -356 -144q-146 -146 -146 -362q0 -215 146 -361q146 -143 356 -143q120 0 224.5 54t174.5 149l195 -160q-106 -130 -262 -202t-332 -72 q-313 0 -539 215q-223 216 -223 520z" />
<glyph unicode="D" horiz-adv-x="1529" d="M158 0v1444h549q301 0 514 -213t213 -510q0 -290 -201 -506q-200 -215 -479 -215h-596zM403 225h328q185 0 318 148q135 150 135 348q0 205 -142 350q-139 148 -335 148h-304v-994z" />
<glyph unicode="E" horiz-adv-x="1335" d="M158 0v1444h1042v-213h-797v-428h670v-205h-670v-385h840v-213h-1085z" />
<glyph unicode="F" horiz-adv-x="1300" d="M158 0v1444h1065v-213h-820v-565h707v-211h-707v-455h-245z" />
<glyph unicode="G" horiz-adv-x="1605" d="M96 721q0 305 223 518q224 217 543 217q349 0 576 -207l-158 -172q-163 150 -418 150q-210 0 -360 -150q-148 -148 -148 -356q0 -218 148 -369q149 -149 360 -149q213 0 375 116v185h-406v207h660v-514q-263 -211 -629 -211q-317 0 -543 215q-223 216 -223 520z" />
<glyph unicode="H" horiz-adv-x="1525" d="M158 0v1444h245v-717h719v717h246v-1444h-246v514h-719v-514h-245z" />
<glyph unicode="I" horiz-adv-x="577" d="M162 0v1444h254v-1444h-254z" />
<glyph unicode="J" horiz-adv-x="1196" d="M37 434l217 21q24 -108 99 -174t182 -66q123 0 196.5 85t73.5 222v922h252v-854q0 -284 -132 -444t-384 -160q-194 0 -338 129q-145 130 -166 319z" />
<glyph unicode="K" horiz-adv-x="1452" d="M158 0v1444h245v-760l687 760h305l-633 -711l651 -733h-332l-483 547l-195 -213v-334h-245z" />
<glyph unicode="L" horiz-adv-x="1239" d="M158 0v1444h252v-1237h764v-207h-1016z" />
<glyph unicode="M" horiz-adv-x="1783" d="M158 0v1444h125l608 -879l608 879h125v-1444h-252v893l-481 -717l-481 717v-893h-252z" />
<glyph unicode="N" horiz-adv-x="1591" d="M158 0v1444h125l899 -989v989h252v-1444h-125l-899 989v-989h-252z" />
<glyph unicode="O" horiz-adv-x="1726" d="M96 721q0 307 223 520q226 215 543 215q315 0 541 -215q225 -215 225 -520t-225 -520q-226 -215 -541 -215q-317 0 -543 215q-223 213 -223 520zM354 721q0 -211 148 -359q150 -147 360 -147q212 0 359 147q149 146 149 359q0 210 -149 356q-147 150 -359 150 q-210 0 -360 -150q-148 -148 -148 -356z" />
<glyph unicode="P" horiz-adv-x="1361" d="M158 0v1444h585q119 0 214.5 -27.5t158 -75t103.5 -113t59 -138t18 -154.5q0 -269 -159 -403t-449 -134h-278v-399h-252zM410 604h254q179 0 274.5 83t95.5 233q0 142 -82 226.5t-247 84.5h-295v-627z" />
<glyph unicode="Q" horiz-adv-x="1726" d="M96 721q0 307 223 520q226 215 543 215t541 -217q225 -215 225 -518q0 -270 -190 -475l151 -129l-116 -140l-170 144q-197 -135 -441 -135q-317 0 -543 215q-223 213 -223 520zM352 721q0 -211 148 -359q150 -147 362 -147q133 0 248 68l-100 84l118 141l115 -98 q127 133 127 311q0 210 -149 356q-147 150 -359 150q-210 0 -360 -150q-150 -147 -150 -356z" />
<glyph unicode="R" horiz-adv-x="1425" d="M158 0v1444h622q119 0 214.5 -27.5t158 -75t103.5 -113t59 -138t18 -154.5q0 -371 -305 -485l348 -451h-303l-295 401q-14 -2 -69 -2h-299v-399h-252zM410 602h288q179 0 275 84t96 234q0 142 -82 226.5t-246 84.5h-331v-629z" />
<glyph unicode="S" horiz-adv-x="1318" d="M88 119l92 190q142 -68 250 -92q116 -22 258 -22q134 0 210.5 52t76.5 144q0 82 -76 130t-256 91q-113 27 -178.5 47.5t-136.5 53.5q-111 51 -163.5 125.5t-58.5 199.5q0 185 142 303q141 117 383 117q291 0 543 -117l-103 -194q-218 98 -446 98q-122 0 -193.5 -51.5 t-71.5 -136.5q0 -83 79 -131t272 -92q134 -30 227 -65t160.5 -84.5t99 -116.5t31.5 -156q0 -202 -150 -316t-399 -114q-191 0 -307 26q-108 25 -285 111z" />
<glyph unicode="T" horiz-adv-x="1351" d="M80 1231v213h1198v-213h-473v-1231h-252v1231h-473z" />
<glyph unicode="U" horiz-adv-x="1548" d="M147 580v864h246v-803q0 -209 97.5 -319.5t283.5 -110.5t284.5 110.5t98.5 319.5v803h246v-864q0 -257 -166 -426q-165 -168 -463 -168q-297 0 -463 166q-164 170 -164 428z" />
<glyph unicode="V" horiz-adv-x="1556" d="M49 1444h275l456 -1026l459 1026h274l-671 -1444h-121z" />
<glyph unicode="W" horiz-adv-x="2287" d="M45 1444h272l357 -973l411 973h107l410 -973l356 973h272l-565 -1444h-104l-422 1030l-422 -1030h-107z" />
<glyph unicode="X" horiz-adv-x="1466" d="M55 0l520 727l-509 717h282l389 -531l391 531h281l-508 -717l520 -727h-286l-398 541l-395 -541h-287z" />
<glyph unicode="Y" horiz-adv-x="1411" d="M23 1444h286l398 -688l395 688h289l-560 -952v-492h-251v492z" />
<glyph unicode="Z" horiz-adv-x="1384" d="M92 0v106l836 1125h-797v213h1159v-111l-835 -1120h841v-213h-1204z" />
<glyph unicode="[" horiz-adv-x="778" d="M162 -260v1696h547v-181h-342v-1335h342v-180h-547z" />
<glyph unicode="\" horiz-adv-x="983" d="M-49 1634h205l907 -1896h-205z" />
<glyph unicode="]" horiz-adv-x="792" d="M84 -80h342v1335h-342v181h545v-1696h-545v180z" />
<glyph unicode="^" horiz-adv-x="960" d="M80 1004l344 440h113l346 -440h-178l-224 290l-223 -290h-178z" />
<glyph unicode="_" horiz-adv-x="1208" d="M-6 -61h1218v-146h-1218v146z" />
<glyph unicode="`" horiz-adv-x="966" d="M227 1870l267 22l260 -352h-156z" />
<glyph unicode="a" d="M88 559q0 233 154 404q153 170 403 170q188 0 344 -105v82h246v-1110h-246v92q-150 -106 -344 -106q-250 0 -403 170q-154 171 -154 403zM324 559q0 -146 102 -254q101 -104 260 -104q183 0 303 108v496q-119 110 -303 110q-161 0 -262 -104q-100 -103 -100 -252z" />
<glyph unicode="b" horiz-adv-x="1376" d="M137 0v1544h246v-510q158 96 344 96q240 0 401 -161q164 -159 164 -412q0 -248 -164 -412q-161 -161 -401 -161q-197 0 -344 100v-84h-246zM383 309q120 -108 303 -108q160 0 260 100q105 102 105 256q0 152 -105 254q-104 104 -260 104q-183 0 -303 -108v-498z" />
<glyph unicode="c" horiz-adv-x="1183" d="M80 557q0 237 178 406q176 167 428 167q264 0 428 -212l-160 -144q-99 141 -268 141q-153 0 -260 -104t-107 -254q0 -148 107 -252t260 -104q167 0 268 143l156 -143q-76 -101 -187 -158t-237 -57q-251 0 -428 168q-178 169 -178 403z" />
<glyph unicode="d" horiz-adv-x="1376" d="M84 557q0 253 164 412q161 161 401 161q188 0 346 -96v510h244v-1544h-244v84q-147 -100 -346 -100q-240 0 -401 161q-164 164 -164 412zM326 557q0 -155 104 -256q103 -100 260 -100q185 0 305 108v498q-120 108 -305 108q-156 0 -260 -104q-104 -101 -104 -254z" />
<glyph unicode="e" horiz-adv-x="1269" d="M82 557q0 240 160 408q158 165 407 165t391 -161q148 -165 148 -418l-2 -66h-860q27 -128 129 -211q100 -81 229 -81q197 0 305 147l158 -129q-79 -105 -210 -165t-288 -60q-248 0 -407 166q-160 168 -160 405zM330 657h622q-12 129 -89 205t-214 76q-121 0 -208 -78.5 t-111 -202.5z" />
<glyph unicode="f" horiz-adv-x="796" d="M-27 -180q142 0 189 47q49 46 49 205v841h-166v197h166v64q0 196 91.5 289t254.5 93q105 0 229 -34v-181q-76 13 -129 13q-117 0 -158.5 -51.5t-41.5 -172.5v-20h317v-197h-317v-956q0 -153 -90.5 -247.5t-251.5 -94.5q-85 0 -142 14v191z" />
<glyph unicode="g" horiz-adv-x="1376" d="M82 578q0 241 164 397q162 155 403 155q196 0 344 -98v78h244v-917q0 -111 -32.5 -210.5t-98 -183.5t-178.5 -134t-260 -50q-103 0 -250 12l-64 13l-51 12l-61 16l-64 19l47 178q7 -1 46 -12.5t46 -12.5q38 -14 89 -20q88 -21 206 -21q165 0 269 90q102 89 102 226 q-149 -90 -334 -90q-241 0 -403 155q-164 156 -164 398zM324 578q0 -150 104 -244q107 -96 262 -96q190 0 303 104v467q-118 106 -303 106q-155 0 -262 -98q-104 -94 -104 -239z" />
<glyph unicode="h" horiz-adv-x="1302" d="M137 0v1544h246v-508q131 94 322 94q240 0 358.5 -124.5t118.5 -382.5v-623h-246v623q0 142 -71 217t-201 75q-168 0 -281 -98v-817h-246z" />
<glyph unicode="i" horiz-adv-x="534" d="M123 1399q0 60 41.5 101.5t101.5 41.5t101 -41.5t41 -101.5q0 -59 -42 -100.5t-100 -41.5q-60 0 -101.5 41t-41.5 101zM143 0v1110h246v-1110h-246z" />
<glyph unicode="j" horiz-adv-x="534" d="M-94 -178q4 0 22 -1t23 -1q108 0 150 56t42 196v1038h244v-1151q0 -161 -92 -252.5t-238 -91.5q-91 0 -151 14v193zM121 1398.5q0 59.5 41 100.5q43 43 102.5 43t100.5 -43q41 -41 41 -100.5t-41 -100.5t-100.5 -41t-102.5 41q-41 41 -41 100.5z" />
<glyph unicode="k" horiz-adv-x="1243" d="M137 0v1544h246v-979l545 545h289l-412 -430l418 -680h-273l-309 494l-258 -252v-242h-246z" />
<glyph unicode="l" horiz-adv-x="532" d="M143 0v1544h244v-1544h-244z" />
<glyph unicode="m" horiz-adv-x="2019" d="M139 0v1110h244v-84q131 104 315 104q253 0 365 -151q148 151 360 151q241 0 359.5 -124.5t118.5 -382.5v-623h-246v623q0 141 -71.5 216.5t-201.5 75.5q-145 0 -249 -98q18 -89 18 -196v-621h-244v623q0 142 -65 217t-187 75q-164 0 -272 -102v-813h-244z" />
<glyph unicode="n" horiz-adv-x="1304" d="M137 0v1110h246v-84q131 104 322 104q240 0 358.5 -124.5t118.5 -382.5v-623h-246v623q0 142 -71 217t-201 75q-167 0 -281 -102v-813h-246z" />
<glyph unicode="o" d="M78 557q0 237 178 406q176 167 428 167t428 -167q178 -169 178 -406q0 -234 -178 -403q-177 -168 -428 -168t-428 168q-178 169 -178 403zM317 557q0 -148 107 -252t260 -104q151 0 258 104q109 106 109 252q0 148 -109 254q-107 104 -258 104q-153 0 -260 -104 t-107 -254z" />
<glyph unicode="p" horiz-adv-x="1378" d="M137 -358v1468h246v-80q141 100 344 100q240 0 401 -161q164 -159 164 -412q0 -246 -164 -410q-161 -161 -401 -161q-189 0 -344 96v-440h-246zM383 309q120 -108 303 -108q157 0 260 100q105 102 105 256q0 152 -105 254q-104 104 -260 104q-184 0 -303 -110v-496z" />
<glyph unicode="q" horiz-adv-x="1378" d="M86 557q0 254 162 412q161 161 401 161q199 0 346 -100v80h246v-1468h-246v440q-158 -96 -346 -96q-240 0 -401 161q-162 162 -162 410zM328 557q0 -154 102 -256q103 -100 262 -100q183 0 303 108v496q-119 110 -303 110q-156 0 -260 -104q-104 -101 -104 -254z" />
<glyph unicode="r" horiz-adv-x="892" d="M139 0v1110h244v-180q120 200 356 200q51 0 95 -20l-11 -252q-62 19 -141 19q-141 0 -217.5 -91.5t-81.5 -240.5v-545h-244z" />
<glyph unicode="s" horiz-adv-x="1073" d="M76 90l90 178q219 -92 391 -92q104 0 159.5 38.5t55.5 98.5q0 59 -56 91t-206 63q-212 45 -314 122t-102 214q0 146 117 235q118 92 303 92q214 0 430 -88l-82 -176q-185 72 -352 72q-92 0 -144.5 -34t-52.5 -91q0 -54 59.5 -85.5t211.5 -63.5q211 -43 311 -121t100 -215 q0 -158 -116.5 -250t-327.5 -92q-257 0 -475 104z" />
<glyph unicode="t" horiz-adv-x="843" d="M43 913v197h168v434h246v-434h334v-197h-334v-458q0 -151 41 -208t147 -57q58 0 141 13v-180q-110 -37 -245 -37q-147 0 -238.5 91t-91.5 253v583h-168z" />
<glyph unicode="u" horiz-adv-x="1312" d="M123 494v616h244v-616q0 -141 72 -217t202 -76q175 0 289 102v807h246v-1110h-246v90q-134 -104 -330 -104q-240 0 -358.5 125t-118.5 383z" />
<glyph unicode="v" horiz-adv-x="1263" d="M37 1110h258l338 -711l336 711h258l-535 -1110h-119z" />
<glyph unicode="w" horiz-adv-x="1753" d="M31 1110h243l267 -717l274 717h123l274 -717l267 717h243l-419 -1110h-123l-303 754l-304 -754h-120z" />
<glyph unicode="x" horiz-adv-x="1198" d="M41 0l422 565l-418 545h277l280 -365l279 365h276l-418 -545l422 -565h-266l-293 365l-295 -365h-266z" />
<glyph unicode="y" horiz-adv-x="1265" d="M43 1110h258l328 -815h26l312 815h250l-461 -1169q-47 -115 -142 -189q-174 -135 -434 -135q-82 0 -102 2l31 180h28q298 0 387 201h-30z" />
<glyph unicode="z" horiz-adv-x="1177" d="M70 0v119l680 794h-641v197h1009v-115l-684 -798h672v-197h-1036z" />
<glyph unicode="{" horiz-adv-x="901" d="M68 481v181q198 0 258 57q21 15 43 88q5 17 8 63q4 118 4 168v107q0 157 84 227q37 34 98 49q97 29 268 29v-158q-149 0 -204.5 -50.5t-55.5 -186.5v-168q0 -145 -38 -218.5t-130 -97.5q93 -25 130.5 -94t37.5 -213v-184q0 -137 55.5 -187.5t204.5 -50.5v-157 q-96 0 -152.5 5t-115.5 23q-89 24 -135.5 90t-46.5 187v125q0 123 -6 182q-4 46 -10.5 66t-24.5 47q-29 41 -88.5 55t-183.5 16z" />
<glyph unicode="|" horiz-adv-x="632" d="M215 -262v1896h191v-1896h-191z" />
<glyph unicode="}" horiz-adv-x="899" d="M74 -158q150 0 205 49t55 187v186q0 145 37.5 214t132.5 93q-95 24 -132.5 95.5t-37.5 220.5v170q0 137 -55 186t-205 49v158q94 0 151 -5.5t115 -23.5q91 -24 137.5 -89.5t46.5 -186.5v-107q0 -50 4 -168q0 -14 1.5 -26t2.5 -19.5t4 -18t4.5 -14.5t6 -16.5t6.5 -17.5 q26 -55 89.5 -75.5t195.5 -20.5v-181q-124 -2 -184 -16t-89 -55q-18 -27 -24.5 -47t-10.5 -66q-6 -59 -6 -182v-125q0 -158 -84 -228q-37 -34 -100 -49q-58 -18 -114 -23t-152 -5v157z" />
<glyph unicode="~" horiz-adv-x="993" d="M88 481q6 138 70 216.5t168 78.5q69 0 176 -45q113 -43 151 -43q44 0 80 36t53 99l117 -14q-7 -133 -71 -213t-158 -80q-65 0 -178 43q-110 45 -150 45q-102 0 -143 -135z" />
<glyph unicode="&#xa1;" horiz-adv-x="540" d="M127 1314.5q0 59.5 41 100.5t100.5 41t100.5 -41q43 -41 43 -100.5t-43 -102.5q-41 -41 -100.5 -41t-100.5 41q-41 43 -41 102.5zM141 0l43 987h168l41 -987h-252z" />
<glyph unicode="&#xa2;" horiz-adv-x="1177" d="M68 750q0 251 180 413q180 165 432 168l29 131h159l-30 -157q166 -46 276 -177l-156 -131q-57 74 -159 109l-150 -737q46 -4 51 -4q70 0 139.5 40t118.5 103l156 -131q-165 -198 -418 -207q-44 0 -84 6l-34 -176h-164l41 209q-174 65 -281 211q-106 144 -106 330z M281 750q0 -110 58 -202.5t157 -139.5l147 731q-156 -15 -260 -125q-102 -111 -102 -264z" />
<glyph unicode="&#xa3;" horiz-adv-x="1308" d="M88 0v117l215 78q-31 237 -43 358h-162v184h150q-4 54 -4 117q0 305 137 454.5t383 149.5q140 0 260 -70.5t188 -189.5l-163 -137q-42 79 -115 124.5t-164 45.5q-133 0 -203.5 -87.5t-70.5 -248.5q0 -73 6 -158h534v-184h-518l43 -346h676v-207h-1149z" />
<glyph unicode="&#xa4;" horiz-adv-x="1992" d="M98 -229h8l25 -76l16 76h9l18 -76l25 76h8l-29 -86h-8l-18 71l-17 -71h-8zM174 45v180h62q56 3 78 -43.5t0 -93t-72 -43.5h-68zM221 -229h8l25 -76l16 76h9l18 -76l25 76h8l-29 -86h-8l-19 71l-16 -71h-8zM223 88h15q17 0 27.5 13t10.5 34q0 19 -11.5 32t-28.5 13h-13 v-92zM340 45v180h129v-41h-80v-24h53v-35h-53v-41h86v-39h-135zM348 -229h8l25 -76l16 76h9l18 -76l25 76h8l-29 -86h-8l-19 71l-16 -71h-8zM406 922q0 115 64 210t169 136q43 105 137.5 169t210.5 64q115 0 210 -64t136 -169q105 -41 169.5 -136t64.5 -210 q0 -116 -64.5 -211t-169.5 -138q-41 -105 -136 -169t-210 -64q-116 0 -210.5 64t-137.5 169q-105 43 -169 138t-64 211zM462 -311q0 8 7 8t7 -8t-7 -8t-7 8zM487 59l19 37q28 -14 61 -14q21 0 21 12q0 9 -29 19q-67 15 -67 57q0 41 39 53t102 -10l-21 -39q-34 12 -53 12 q-18 0 -18 -12q0 -9 30 -18q68 -15 68 -56q0 -59 -74 -59q-41 0 -78 18zM500 -231h8v-86h-8v86zM530 -231h9l51 -72v72h8v-86h-8l-51 73v-73h-9v86zM616 -231h62v-9h-27v-77h-8v77h-27v9zM655 45v180h50v-180h-50zM698 -231h54v-9h-45v-36h41v-9h-41v-24h45v-8h-54v86z M713 602h88v141l141 -141v275h-229v-275zM713 965h229v274l-141 -141v141h-88v-274zM719 135q0 39 27.5 65.5t68.5 26.5q45 0 74 -26l-33 -33q-17 14 -41 14q-27 3 -38 -22t0 -51t38 -25q16 0 29 8v8h-33v35h84v-67q-31 -24 -80 -27q-38 0 -67 28t-29 66zM770 -231h8v-78h41 v-8h-49v86zM838 -231h8v-78h41v-8h-49v86zM905 -231h8v-86h-8v86zM913 45v180h23l96 -94v94h49v-180h-22l-96 92v-92h-50zM935.5 -257q11.5 28 39.5 28q18 0 33 -15l-7 -6q-9 12 -26 12q-21 0 -30 -18t0.5 -35.5t31.5 -17.5l24 8v10h-20v8h29v-22q-12 -12 -33 -12t-33 12 q-20 20 -8.5 48zM1028 -231h53v-9h-45v-36h41v-9h-41v-24h45v-8h-53v86zM1030 602h72q66 0 112 47t46 113q0 68 -50 115h-180v-275zM1030 965h180q50 47 50 114q0 66 -46 113t-112 47h-72v-274zM1100 -231h8l51 -72v72h8v-86h-8l-51 73v-73h-8v86zM1104 45v180h131v-41h-82 v-24h55v-35h-55v-41h86v-39h-135zM1184 -231h61v-9h-26v-77h-9v77h-26v9zM1262 45v180h61q56 3 78 -43.5t0 -93t-72 -43.5h-67zM1264 -231h24q18 0 30.5 -12.5t12.5 -30.5t-12.5 -30.5t-30.5 -12.5h-24v86zM1272 -240v-69h16q21 0 30 17.5t0 34.5t-30 17h-16zM1311 88h14 q17 0 28 13.5t11 33.5q0 19 -12 32t-29 13h-12v-92zM1350 -231h53v-9h-45v-36h41v-9h-41v-24h45v-8h-53v86zM1417 -299l6 4q6 -14 25 -14q16 0 16 16q0 11 -16 17q-25 9 -25 24q0 23 23 23q16 0 22 -15l-6 -4q-7 10 -16 10q-14 0 -14 -14q0 -10 18 -16q23 -10 23 -25 q0 -24 -25 -24q-22 0 -31 18zM1475 45v180h79q54 0 54 -39q0 -18 -17 -32q35 -15 35 -54q0 -24 -14.5 -39.5t-40.5 -15.5h-96zM1493 -231h8v-86h-8v86zM1522 84h22q31 0 31 22q0 21 -37 21h-16v-43zM1522 162h28q15 0 15 10q0 12 -13 12h-30v-22zM1523.5 -257 q11.5 28 39.5 28q17 0 32 -15l-6 -6q-9 12 -26 12q-21 0 -30 -18t0.5 -35.5t31.5 -17.5l24 8v10h-20v8h28v-22q-12 -12 -32.5 -12t-32.5 12q-20 20 -8.5 48zM1614 223h55l37 -65l37 65h57l-69 -119v-59h-50v59zM1618 -231h8l51 -72v72h9v-86h-9l-51 73v-73h-8v86zM1700 -311 q0 8 8 8t8 -8t-8 -8t-8 8zM1728 -257q11 28 39 28q18 0 33 -15l-6 -6q-9 12 -27 12q-21 0 -30 -18t0.5 -35.5t31.5 -17.5l25 8v10h-20v8h28v-22q-12 -12 -32.5 -12t-32.5 12q-20 20 -9 48zM1821 -231h22q13 0 23 -10.5t10 -22.5q0 -22 -18 -31l20 -22h-12l-17 18h-20v-18h-8 v86zM1829 -240v-51h14q25 3 25 27t-25 24h-14z" />
<glyph unicode="&#xa5;" horiz-adv-x="1466" d="M43 1444h287l395 -688l397 688h289l-453 -768h299v-164h-391l-12 -37v-55h403v-164h-403v-256h-254v256h-403v164h403v55l-12 37h-391v164h297z" />
<glyph unicode="&#xa6;" horiz-adv-x="624" d="M217 -260v784h191v-784h-191zM217 850v784h191v-784h-191z" />
<glyph unicode="&#xa7;" horiz-adv-x="1282" d="M123 723q0 142 172 221q-115 71 -115 211q0 143 117 223q118 80 297 80q244 0 485 -92l-80 -178q-241 86 -409 86q-86 0 -140.5 -35.5t-54.5 -95.5q0 -34 20.5 -57.5t69.5 -43.5l88 -30l129 -31q157 -35 259 -76q85 -35 121 -85.5t44 -141.5q0 -65 -39.5 -121t-91.5 -74 q66 -60 66 -161q0 -147 -115 -242q-116 -96 -315 -96q-146 0 -253.5 22.5t-223.5 81.5l92 166q100 -51 177.5 -70.5t184.5 -19.5q91 0 146 42.5t55 92.5q0 81 -242 137q-60 13 -101.5 23.5t-99 28t-96.5 38.5t-75.5 49.5t-54.5 66t-17 81.5zM311 748q0 -60 109 -95 q77 -21 112 -28q192 -38 295 -70q43 6 77 39t34 76q0 45 -57.5 78t-196.5 63q-187 47 -240 63q-57 -19 -95 -55t-38 -71z" />
<glyph unicode="&#xa8;" horiz-adv-x="1024" d="M201 1667q0 50 35 84.5t86 34.5q49 0 83.5 -34.5t34.5 -84.5t-34.5 -85.5t-83.5 -35.5q-51 0 -86 35.5t-35 85.5zM583 1667q0 49 35 84q37 35 86 35t84 -35q37 -35 37 -84t-37 -86q-35 -35 -84 -35t-86 35q-35 37 -35 86z" />
<glyph unicode="&#xa9;" horiz-adv-x="1699" d="M115 725q0 302 215 520q216 219 522 219q307 0 520 -219t213 -520q0 -304 -215 -522q-211 -217 -522 -217q-309 0 -520 217q-213 219 -213 522zM195 723q0 -275 188 -469q190 -193 465 -193t467 195q190 196 190 469t-188 467t-465 194q-276 0 -467 -194 q-190 -193 -190 -469zM436 725q0 177 123 303q122 125 297 125q202 0 326 -160l-113 -96q-83 115 -213 115q-109 0 -190 -84q-78 -84 -78 -203q0 -118 78 -205q81 -84 190 -84q130 0 213 115l113 -96q-124 -160 -326 -160q-175 0 -297 125q-123 126 -123 305z" />
<glyph unicode="&#xaa;" horiz-adv-x="1015" d="M96 1038q0 165 107 281q107 119 282 119q120 0 230 -64v47h176v-768h-176v52q-103 -68 -230 -68q-175 0 -282 119t-107 282zM266 1038q0 -101 70 -174q71 -71 180 -71q117 0 199 67v350q-79 70 -199 70q-108 0 -180 -72q-70 -70 -70 -170z" />
<glyph unicode="&#xab;" horiz-adv-x="1185" d="M86 545l356 528l160 -115l-297 -413l297 -412l-160 -117zM578 545l358 528l158 -115l-295 -413l295 -412l-158 -117z" />
<glyph unicode="&#xac;" horiz-adv-x="1216" d="M78 797v207h1032v-558h-207v351h-825z" />
<glyph unicode="&#xad;" horiz-adv-x="835" d="M90 580v202h655v-202h-655z" />
<glyph unicode="&#xae;" horiz-adv-x="1699" d="M117 725q0 302 215 520q216 219 522 219q307 0 520 -219t213 -520q0 -304 -215 -522q-214 -217 -522 -217q-309 0 -520 217q-213 219 -213 522zM197 723q0 -275 188 -469q187 -193 465 -193q275 0 467 195q190 196 190 469t-188 467t-465 194q-276 0 -467 -194 q-190 -193 -190 -469zM528 315v834h357q161 0 241 -79.5t80 -213.5q0 -190 -147 -264l170 -197l-107 -104l-225 256q-10 -2 -43 -2h-172v-230h-154zM682 659h158q99 0 153 48t54 135q0 82 -46.5 131t-136.5 49h-182v-363z" />
<glyph unicode="&#xaf;" horiz-adv-x="1024" d="M188 1581v158h648v-158h-648z" />
<glyph unicode="&#xb0;" horiz-adv-x="966" d="M111 1110q0 149 110 256q115 109 262 109q148 0 260 -109q113 -107 113 -260q0 -146 -111 -254q-110 -107 -262 -107t-262 107t-110 258zM246 1108q0 -97 69 -166q71 -68 168 -68q98 0 166 68q70 70 70 166q0 99 -70 166q-69 69 -166 69q-99 0 -168 -69t-69 -166z" />
<glyph unicode="&#xb1;" horiz-adv-x="1310" d="M141 0v205h1033v-205h-1033zM141 793v202h416v414h201v-414h416v-202h-416v-416h-201v416h-416z" />
<glyph unicode="&#xb2;" horiz-adv-x="849" d="M92 612v66q46 73 137 139q87 64 168 107q86 46 141.5 101.5t55.5 113.5q0 78 -54 133t-132 55q-74 0 -127.5 -56.5t-53.5 -131.5v-11h-135v19q0 137 94 225q95 92 224 92q134 0 229 -92q96 -93 96 -225q0 -85 -41 -153t-102 -103l-123 -74q-72 -43 -96 -74h368v-131h-649 z" />
<glyph unicode="&#xb3;" horiz-adv-x="849" d="M70 662l55 116q116 -49 266 -49q80 0 131 38t51 103q0 57 -53 95.5t-149 38.5h-58l-28 61l196 248h-370v129h594v-68l-222 -274q112 -21 175 -79.5t63 -152.5q0 -124 -90.5 -196t-243.5 -72q-181 0 -317 62z" />
<glyph unicode="&#xb4;" horiz-adv-x="1024" d="M297 1540l260 352l266 -22l-370 -330h-156z" />
<glyph unicode="&#xb5;" horiz-adv-x="1329" d="M137 -352v1462h246v-616q0 -144 70.5 -218.5t201.5 -74.5q171 0 291 102v807h244v-1110h-244v84q-122 -98 -309 -98q-172 0 -254 125v-463h-246z" />
<glyph unicode="&#xb6;" horiz-adv-x="1179" d="M53 967q0 221 144.5 344t396.5 123h448v-1434h-163v1214h-72v-1214h-164v502h-43q-246 0 -397 121q-150 123 -150 344zM350 985q0 -110 67.5 -170.5t180.5 -60.5h47v460h-37q-120 0 -189 -60t-69 -169z" />
<glyph unicode="&#xb7;" horiz-adv-x="473" d="M90 641q0 59 41 100q43 43 102.5 43t100.5 -43q43 -41 43 -100t-43 -102q-41 -41 -100.5 -41t-102.5 41q-41 43 -41 102z" />
<glyph unicode="&#xb8;" horiz-adv-x="878" d="M229 -289q59 -6 86 -6q62 0 100 21.5t38 54.5q0 61 -142 61l129 160h148l-51 -115q26 0 51.5 -30.5t25.5 -71.5q0 -72 -65.5 -120t-188.5 -48l-124 6z" />
<glyph unicode="&#xb9;" horiz-adv-x="772" d="M174 1380l283 64h67v-832h-151v684l-168 -36z" />
<glyph unicode="&#xba;" horiz-adv-x="1038" d="M86 1038q0 168 123 285q126 117 301 117q176 0 299 -117q125 -116 125 -285q0 -166 -125 -282q-123 -117 -299 -117q-175 0 -301 117q-123 117 -123 282zM260 1038q0 -100 72 -172q74 -71 178 -71q102 0 176 71t74 172t-74 172q-74 74 -176 74q-103 0 -178 -72 q-72 -72 -72 -174z" />
<glyph unicode="&#xbb;" horiz-adv-x="1183" d="M98 133l297 412l-297 413l158 115l358 -528l-358 -529zM590 133l297 412l-297 413l158 115l358 -528l-358 -529z" />
<glyph unicode="&#xbc;" horiz-adv-x="1808" d="M135 1380l283 64h67v-832h-151v684l-168 -36zM285 0l989 1436h182l-989 -1436h-182zM946 260l494 574h116v-523h140v-127h-140v-184h-147v184h-432zM1157 311h252v293z" />
<glyph unicode="&#xbd;" horiz-adv-x="1898" d="M135 1380l283 64h67v-832h-151v684l-168 -36zM287 0l989 1436h182l-989 -1436h-182zM1104 0v66q46 73 137 139q82 60 168 106t141.5 101.5t55.5 113.5q0 78 -54.5 133.5t-132.5 55.5q-74 0 -127 -57t-53 -132v-10h-135v19q0 137 94 225q95 92 223 92q135 0 230 -92 q96 -93 96 -225q0 -85 -41 -153t-102 -103l-123 -74q-74 -44 -97 -74h369v-131h-649z" />
<glyph unicode="&#xbe;" horiz-adv-x="1843" d="M70 662l55 116q116 -49 266 -49q80 0 131 38t51 103q0 57 -53 95.5t-149 38.5h-58l-28 61l196 248h-370v129h594v-68l-222 -274q112 -21 175 -79.5t63 -152.5q0 -124 -90.5 -196t-243.5 -72q-181 0 -317 62zM338 0l989 1436h180l-989 -1436h-180zM997 260l494 574h117 v-523h139v-127h-139v-184h-148v184h-432zM1208 311h252v293z" />
<glyph unicode="&#xbf;" horiz-adv-x="1105" d="M72 449q0 168 123 276q126 111 344 111l10 188h174l14 -285l-24 -57h-84q-155 0 -245.5 -63t-90.5 -173q0 -115 83 -183t214 -68q232 0 405 84l84 -191q-126 -65 -223 -84q-97 -20 -258 -20q-242 0 -384 124.5t-142 340.5zM494 1314.5q0 59.5 41 100.5q43 43 102 43 t100 -43q43 -41 43 -100.5t-43 -102.5q-41 -41 -100 -41t-102 41q-41 43 -41 102.5z" />
<glyph unicode="&#xc0;" horiz-adv-x="1550" d="M29 0l682 1444h129l682 -1444h-265l-143 319h-680l-139 -319h-266zM326 1870l266 22l260 -352h-156zM524 524h502l-252 566z" />
<glyph unicode="&#xc1;" horiz-adv-x="1550" d="M29 0l682 1444h129l682 -1444h-265l-143 319h-680l-139 -319h-266zM524 524h502l-252 566zM702 1540l261 352l266 -22l-371 -330h-156z" />
<glyph unicode="&#xc2;" horiz-adv-x="1550" d="M29 0l682 1444h129l682 -1444h-265l-143 319h-680l-139 -319h-266zM401 1540l297 309h152l299 -309h-176l-199 186l-199 -186h-174zM524 524h502l-252 566z" />
<glyph unicode="&#xc3;" horiz-adv-x="1550" d="M29 0l682 1444h129l682 -1444h-265l-143 319h-680l-139 -319h-266zM369 1538q7 139 70.5 217t166.5 78q71 0 178 -45q110 -43 150 -43q45 0 81.5 36t53.5 99l115 -14q-7 -133 -71.5 -214t-156.5 -81q-70 0 -180 45t-147 45q-103 0 -144 -135zM524 524h502l-252 566z" />
<glyph unicode="&#xc4;" horiz-adv-x="1550" d="M29 0l682 1444h129l682 -1444h-265l-143 319h-680l-139 -319h-266zM463 1667q0 50 35 84.5t86 34.5q49 0 83.5 -34.5t34.5 -84.5t-34.5 -85.5t-83.5 -35.5q-51 0 -86 35.5t-35 85.5zM524 524h502l-252 566zM846 1667q0 49 35 84q37 35 86 35t84 -35q37 -35 37 -84 t-37 -86q-35 -35 -84 -35t-86 35q-35 37 -35 86z" />
<glyph unicode="&#xc5;" horiz-adv-x="1550" d="M29 0l653 1382q-56 30 -90.5 82t-34.5 113q0 83 66 149t151 66q86 0 152 -66q65 -65 65 -149q0 -61 -34.5 -114t-90.5 -79l656 -1384h-265l-143 319h-680l-139 -319h-266zM524 524h502l-252 566zM657 1577q0 -48 34 -82.5t83 -34.5t83 34.5t34 84.5q0 47 -35 82t-82 35 q-49 0 -83 -34.5t-34 -84.5z" />
<glyph unicode="&#xc6;" horiz-adv-x="2101" d="M12 0l740 1444h1216v-213h-799v-428h672v-205h-672v-385h842v-213h-1085v319h-490l-157 -319h-267zM530 524h396v688h-54z" />
<glyph unicode="&#xc7;" horiz-adv-x="1529" d="M96 721q0 307 223 520q224 217 539 217q176 0 331.5 -73t262.5 -203l-195 -160q-70 95 -174.5 150t-224.5 55q-209 0 -356 -144q-146 -146 -146 -362q0 -215 146 -361q146 -143 356 -143q120 0 224.5 54t174.5 149l195 -160q-201 -238 -508 -268l-45 -105 q27 0 52.5 -30.5t25.5 -71.5q0 -72 -65.5 -120t-188.5 -48l-125 6l-6 88q59 -6 86 -6q62 0 99.5 21.5t37.5 54.5q0 61 -141 61l117 146q-295 24 -494 235q-201 213 -201 498z" />
<glyph unicode="&#xc8;" horiz-adv-x="1335" d="M158 0v1444h1042v-213h-797v-428h670v-205h-670v-385h840v-213h-1085zM242 1870l266 22l260 -352h-156z" />
<glyph unicode="&#xc9;" horiz-adv-x="1335" d="M158 0v1444h1042v-213h-797v-428h670v-205h-670v-385h840v-213h-1085zM610 1540l260 352l267 -22l-371 -330h-156z" />
<glyph unicode="&#xca;" horiz-adv-x="1335" d="M158 0v1444h1042v-213h-797v-428h670v-205h-670v-385h840v-213h-1085zM311 1540l297 309h152l299 -309h-176l-199 186l-199 -186h-174z" />
<glyph unicode="&#xcb;" horiz-adv-x="1335" d="M158 0v1444h1042v-213h-797v-428h670v-205h-670v-385h840v-213h-1085zM373 1667q0 50 35 84.5t86 34.5q49 0 83.5 -34.5t34.5 -84.5t-34.5 -85.5t-83.5 -35.5q-51 0 -86 35.5t-35 85.5zM756 1667q0 49 35 84q37 35 86 35t84 -35q37 -35 37 -84t-37 -86q-35 -35 -84 -35 t-86 35q-35 37 -35 86z" />
<glyph unicode="&#xcc;" horiz-adv-x="577" d="M-154 1896l267 23l260 -352h-156zM162 0v1444h254v-1444h-254z" />
<glyph unicode="&#xcd;" horiz-adv-x="577" d="M162 0v1444h254v-1444h-254zM219 1567l260 352l266 -23l-370 -329h-156z" />
<glyph unicode="&#xce;" horiz-adv-x="577" d="M-82 1567l297 309h152l299 -309h-177l-198 186l-199 -186h-174zM162 0v1444h254v-1444h-254z" />
<glyph unicode="&#xcf;" horiz-adv-x="577" d="M-18 1694q0 50 34.5 84t85.5 34q50 0 84.5 -34.5t34.5 -83.5q0 -50 -35 -85.5t-84 -35.5q-51 0 -85.5 35.5t-34.5 85.5zM162 0v1444h254v-1444h-254zM364 1694q0 49 35 84q37 35 86 35t84 -35q37 -35 37 -84t-37 -86q-35 -35 -84 -35t-86 35q-35 37 -35 86z" />
<glyph unicode="&#xd0;" horiz-adv-x="1624" d="M66 621v202h188v621h547q301 0 514 -213t213 -510q0 -290 -201 -506q-200 -215 -479 -215h-594v621h-188zM498 225h327q187 0 320 148t133 348q0 207 -139 352q-140 146 -338 146h-303v-396h331v-202h-331v-396z" />
<glyph unicode="&#xd1;" horiz-adv-x="1591" d="M158 0v1444h125l899 -989v989h252v-1444h-125l-899 989v-989h-252zM381 1538q7 139 70.5 217t166.5 78q72 0 179 -45q110 -43 149 -43q45 0 81.5 36t53.5 99l115 -14q-7 -133 -71 -214t-156 -81q-71 0 -181 45t-147 45q-103 0 -143 -135z" />
<glyph unicode="&#xd2;" horiz-adv-x="1726" d="M96 721q0 307 223 520q226 215 543 215q315 0 541 -215q225 -215 225 -520t-225 -520q-226 -215 -541 -215q-317 0 -543 215q-223 213 -223 520zM354 721q0 -211 148 -359q150 -147 360 -147q212 0 359 147q149 146 149 359q0 210 -149 356q-147 150 -359 150 q-210 0 -360 -150q-148 -148 -148 -356zM410 1870l266 22l260 -352h-156z" />
<glyph unicode="&#xd3;" horiz-adv-x="1726" d="M96 721q0 307 223 520q226 215 543 215q315 0 541 -215q225 -215 225 -520t-225 -520q-226 -215 -541 -215q-317 0 -543 215q-223 213 -223 520zM354 721q0 -211 148 -359q150 -147 360 -147q212 0 359 147q149 146 149 359q0 210 -149 356q-147 150 -359 150 q-210 0 -360 -150q-148 -148 -148 -356zM778 1540l260 352l267 -22l-371 -330h-156z" />
<glyph unicode="&#xd4;" horiz-adv-x="1726" d="M96 721q0 307 223 520q226 215 543 215q315 0 541 -215q225 -215 225 -520t-225 -520q-226 -215 -541 -215q-317 0 -543 215q-223 213 -223 520zM354 721q0 -211 148 -359q150 -147 360 -147q212 0 359 147q149 146 149 359q0 210 -149 356q-147 150 -359 150 q-210 0 -360 -150q-148 -148 -148 -356zM481 1540l297 309h152l299 -309h-176l-199 186l-199 -186h-174z" />
<glyph unicode="&#xd5;" horiz-adv-x="1726" d="M96 721q0 307 223 520q226 215 543 215q315 0 541 -215q225 -215 225 -520t-225 -520q-226 -215 -541 -215q-317 0 -543 215q-223 213 -223 520zM354 721q0 -211 148 -359q150 -147 360 -147q212 0 359 147q149 146 149 359q0 210 -149 356q-147 150 -359 150 q-210 0 -360 -150q-148 -148 -148 -356zM451 1538q7 139 70.5 217t166.5 78q71 0 178 -45q110 -43 150 -43q45 0 81.5 36t53.5 99l115 -14q-7 -133 -71.5 -214t-156.5 -81q-70 0 -180 45t-147 45q-103 0 -144 -135z" />
<glyph unicode="&#xd6;" horiz-adv-x="1726" d="M96 721q0 307 223 520q226 215 543 215q315 0 541 -215q225 -215 225 -520t-225 -520q-226 -215 -541 -215q-317 0 -543 215q-223 213 -223 520zM354 721q0 -211 148 -359q150 -147 360 -147q212 0 359 147q149 146 149 359q0 210 -149 356q-147 150 -359 150 q-210 0 -360 -150q-148 -148 -148 -356zM547 1667q0 50 35 84.5t86 34.5q49 0 83.5 -34.5t34.5 -84.5t-34.5 -85.5t-83.5 -35.5q-51 0 -86 35.5t-35 85.5zM930 1667q0 49 35 84q37 35 86 35t84 -35q37 -35 37 -84t-37 -86q-35 -35 -84 -35t-86 35q-35 37 -35 86z" />
<glyph unicode="&#xd7;" horiz-adv-x="1236" d="M117 279l370 368l-370 369l143 145l371 -370l370 370l144 -143l-371 -371l369 -368l-142 -146l-370 369l-369 -369z" />
<glyph unicode="&#xd8;" horiz-adv-x="1726" d="M96 721q0 307 223 520q226 215 543 215q231 0 426 -127l98 115h211l-184 -215q215 -215 215 -508q0 -305 -225 -520q-226 -215 -541 -215q-234 0 -418 120l-92 -106h-211l176 205q-221 212 -221 516zM354 721q0 -185 127 -324l649 750q-127 80 -268 80q-210 0 -360 -150 q-148 -148 -148 -356zM602 289q115 -74 260 -74q212 0 359 147q149 146 149 359q0 180 -123 315z" />
<glyph unicode="&#xd9;" horiz-adv-x="1548" d="M147 580v864h246v-803q0 -209 97.5 -319.5t283.5 -110.5t284.5 110.5t98.5 319.5v803h246v-864q0 -257 -166 -426q-165 -168 -463 -168q-297 0 -463 166q-164 170 -164 428zM334 1870l266 22l260 -352h-155z" />
<glyph unicode="&#xda;" horiz-adv-x="1548" d="M147 580v864h246v-803q0 -209 97.5 -319.5t283.5 -110.5t284.5 110.5t98.5 319.5v803h246v-864q0 -257 -166 -426q-165 -168 -463 -168q-297 0 -463 166q-164 170 -164 428zM702 1540l261 352l266 -22l-371 -330h-156z" />
<glyph unicode="&#xdb;" horiz-adv-x="1548" d="M147 580v864h246v-803q0 -209 97.5 -319.5t283.5 -110.5t284.5 110.5t98.5 319.5v803h246v-864q0 -257 -166 -426q-165 -168 -463 -168q-297 0 -463 166q-164 170 -164 428zM403 1540l297 309h152l299 -309h-176l-199 186l-198 -186h-175z" />
<glyph unicode="&#xdc;" horiz-adv-x="1548" d="M147 580v864h246v-803q0 -209 97.5 -319.5t283.5 -110.5t284.5 110.5t98.5 319.5v803h246v-864q0 -257 -166 -426q-165 -168 -463 -168q-297 0 -463 166q-164 170 -164 428zM465 1667q0 50 35 84.5t86 34.5q50 0 84.5 -35t34.5 -84q0 -50 -35 -85.5t-84 -35.5 q-51 0 -86 35.5t-35 85.5zM848 1667q0 49 35 84q37 35 86 35t84 -35q37 -35 37 -84t-37 -86q-35 -35 -84 -35t-86 35q-35 37 -35 86z" />
<glyph unicode="&#xdd;" horiz-adv-x="1411" d="M23 1444h286l398 -688l395 688h289l-560 -952v-492h-251v492zM635 1540l260 352l266 -22l-370 -330h-156z" />
<glyph unicode="&#xde;" horiz-adv-x="1359" d="M158 0v1442h252v-199h333q265 0 409 -134.5t144 -369.5q0 -253 -157 -387.5t-428 -134.5h-301v-217h-252zM410 422h295q160 0 249.5 81t89.5 234q0 143 -80.5 222t-238.5 79h-315v-616z" />
<glyph unicode="&#xdf;" horiz-adv-x="1347" d="M137 -352v1380q0 241 144 385q146 146 356 146q220 0 354 -113q135 -114 135 -316q0 -187 -155 -272q134 -42 213.5 -147t79.5 -232q0 -235 -150 -364t-377 -129q-89 0 -151 18l8 203q55 -14 113 -14q141 0 228 75t87 211q0 112 -82.5 188t-220.5 76h-43v185h22 q87 0 143 61.5t56 153.5q0 99 -72 159t-188 60q-115 0 -184.5 -82t-69.5 -207v-1425h-246z" />
<glyph unicode="&#xe0;" d="M88 559q0 233 154 404q153 170 403 170q188 0 344 -105v82h246v-1110h-246v92q-150 -106 -344 -106q-250 0 -403 170q-154 171 -154 403zM244 1581l266 23l260 -353h-156zM324 559q0 -146 102 -254q101 -104 260 -104q183 0 303 108v496q-119 110 -303 110 q-161 0 -262 -104q-100 -103 -100 -252z" />
<glyph unicode="&#xe1;" d="M88 559q0 233 154 404q153 170 403 170q188 0 344 -105v82h246v-1110h-246v92q-150 -106 -344 -106q-250 0 -403 170q-154 171 -154 403zM324 559q0 -146 102 -254q101 -104 260 -104q183 0 303 108v496q-119 110 -303 110q-161 0 -262 -104q-100 -103 -100 -252z M612 1251l260 353l267 -23l-371 -330h-156z" />
<glyph unicode="&#xe2;" d="M88 559q0 233 154 404q153 170 403 170q188 0 344 -105v82h246v-1110h-246v92q-150 -106 -344 -106q-250 0 -403 170q-154 171 -154 403zM322 1251l296 310h152l299 -310h-176l-199 187l-198 -187h-174zM324 559q0 -146 102 -254q101 -104 260 -104q183 0 303 108v496 q-119 110 -303 110q-161 0 -262 -104q-100 -103 -100 -252z" />
<glyph unicode="&#xe3;" d="M88 559q0 233 154 404q153 170 403 170q188 0 344 -105v82h246v-1110h-246v92q-150 -106 -344 -106q-250 0 -403 170q-154 171 -154 403zM289 1249q7 139 70.5 217t166.5 78q72 0 179 -45q110 -43 149 -43q47 0 82.5 35.5t52.5 99.5l115 -14q-7 -133 -71 -214t-156 -81 q-69 0 -179 45t-149 45q-103 0 -143 -135zM324 559q0 -146 102 -254q101 -104 260 -104q183 0 303 108v496q-119 110 -303 110q-161 0 -262 -104q-100 -103 -100 -252z" />
<glyph unicode="&#xe4;" d="M88 559q0 233 154 404q153 170 403 170q188 0 344 -105v82h246v-1110h-246v92q-150 -106 -344 -106q-250 0 -403 170q-154 171 -154 403zM324 559q0 -146 102 -254q101 -104 260 -104q183 0 303 108v496q-119 110 -303 110q-161 0 -262 -104q-100 -103 -100 -252z M383 1378q0 50 35 84.5t86 34.5q50 0 84.5 -34.5t34.5 -84.5t-35 -85.5t-84 -35.5q-51 0 -86 35.5t-35 85.5zM766 1378q0 49 35 84q37 35 86 35t84 -35q37 -35 37 -84t-37 -86q-35 -35 -84 -35t-86 35q-35 37 -35 86z" />
<glyph unicode="&#xe5;" d="M88 559q0 233 154 404q153 170 403 170q188 0 344 -105v82h246v-1110h-246v92q-150 -106 -344 -106q-250 0 -403 170q-154 171 -154 403zM324 559q0 -146 102 -254q101 -104 260 -104q183 0 303 108v496q-119 110 -303 110q-161 0 -262 -104q-100 -103 -100 -252z M477 1477q0 86 66 149q66 66 151.5 66t151.5 -66q66 -63 66 -149t-66 -152q-66 -63 -151.5 -63t-151.5 63q-66 66 -66 152zM578 1477q0 -48 33.5 -82.5t82.5 -34.5t83 34.5t34 84.5q0 47 -35 81.5t-82 34.5q-49 0 -82.5 -34t-33.5 -84z" />
<glyph unicode="&#xe6;" horiz-adv-x="2269" d="M88 557q0 254 162 412q161 161 401 161q196 0 346 -102v82h246v-145q158 165 408 165q249 0 391 -161q147 -164 147 -418l-2 -66h-860q27 -128 129 -211q100 -81 230 -81q197 0 305 147l157 -129q-79 -105 -209.5 -165t-287.5 -60q-249 0 -408 166v-152h-246v92 q-153 -106 -346 -106q-240 0 -401 161q-162 162 -162 410zM324 557q0 -158 106 -258q108 -102 264 -102q179 0 303 112v496q-127 115 -303 115q-157 0 -264 -107q-106 -103 -106 -256zM1331 657h623q-12 129 -89 205t-214 76q-121 0 -208.5 -78.5t-111.5 -202.5z" />
<glyph unicode="&#xe7;" horiz-adv-x="1183" d="M80 557q0 237 178 406q176 167 428 167q264 0 428 -212l-160 -144q-99 141 -268 141q-153 0 -260 -104t-107 -254q0 -148 107 -252t260 -104q167 0 268 143l156 -143q-133 -177 -338 -207l-47 -107q27 0 52.5 -30.5t25.5 -71.5q0 -72 -65.5 -120t-188.5 -48l-125 6l-6 88 q58 -6 86 -6q62 0 99.5 21.5t37.5 54.5q0 61 -141 61l118 148q-229 21 -385 184q-153 164 -153 383z" />
<glyph unicode="&#xe8;" horiz-adv-x="1269" d="M82 557q0 240 160 408q158 165 407 165t391 -161q148 -165 148 -418l-2 -66h-860q27 -128 129 -211q100 -81 229 -81q197 0 305 147l158 -129q-79 -105 -210 -165t-288 -60q-248 0 -407 166q-160 168 -160 405zM201 1581l266 23l260 -353h-156zM330 657h622 q-12 129 -89 205t-214 76q-121 0 -208 -78.5t-111 -202.5z" />
<glyph unicode="&#xe9;" horiz-adv-x="1269" d="M82 557q0 240 160 408q158 165 407 165t391 -161q148 -165 148 -418l-2 -66h-860q27 -128 129 -211q100 -81 229 -81q197 0 305 147l158 -129q-79 -105 -210 -165t-288 -60q-248 0 -407 166q-160 168 -160 405zM330 657h622q-12 129 -89 205t-214 76q-121 0 -208 -78.5 t-111 -202.5zM569 1251l260 353l267 -23l-371 -330h-156z" />
<glyph unicode="&#xea;" horiz-adv-x="1269" d="M82 557q0 240 160 408q158 165 407 165t391 -161q148 -165 148 -418l-2 -66h-860q27 -128 129 -211q100 -81 229 -81q197 0 305 147l158 -129q-79 -105 -210 -165t-288 -60q-248 0 -407 166q-160 168 -160 405zM270 1251l297 310h152l299 -310h-176l-199 187l-199 -187 h-174zM330 657h622q-12 129 -89 205t-214 76q-121 0 -208 -78.5t-111 -202.5z" />
<glyph unicode="&#xeb;" horiz-adv-x="1269" d="M82 557q0 240 160 408q158 165 407 165t391 -161q148 -165 148 -418l-2 -66h-860q27 -128 129 -211q100 -81 229 -81q197 0 305 147l158 -129q-79 -105 -210 -165t-288 -60q-248 0 -407 166q-160 168 -160 405zM330 657h622q-12 129 -89 205t-214 76q-121 0 -208 -78.5 t-111 -202.5zM332 1378q0 50 35 84.5t86 34.5q49 0 83.5 -34.5t34.5 -84.5t-34.5 -85.5t-83.5 -35.5q-51 0 -86 35.5t-35 85.5zM715 1378q0 49 35 84q37 35 86 35t84 -35q37 -35 37 -84t-37 -86q-35 -35 -84 -35t-86 35q-35 37 -35 86z" />
<glyph unicode="&#xec;" horiz-adv-x="534" d="M-176 1561l266 22l260 -352h-155zM143 0v1110h246v-1110h-246z" />
<glyph unicode="&#xed;" horiz-adv-x="534" d="M143 0v1110h246v-1110h-246zM197 1231l260 352l266 -22l-371 -330h-155z" />
<glyph unicode="&#xee;" horiz-adv-x="534" d="M-104 1231l297 309h151l299 -309h-176l-199 186l-198 -186h-174zM143 0v1110h246v-1110h-246z" />
<glyph unicode="&#xef;" horiz-adv-x="534" d="M-43 1358q0 50 35 84.5t86 34.5q50 0 84.5 -34.5t34.5 -84.5t-35 -85.5t-84 -35.5q-51 0 -86 35.5t-35 85.5zM143 0v1110h246v-1110h-246zM340 1358q0 49 35 84q37 35 86 35t84 -35q37 -35 37 -84t-37 -86q-35 -35 -84 -35t-86 35q-35 37 -35 86z" />
<glyph unicode="&#xf0;" horiz-adv-x="1339" d="M53 524q0 195 152 344q151 148 397 148q180 0 262 -64l-43 62q-56 80 -157 184l-320 -111l-90 123l315 111l-198 223h268l141 -151l260 90l84 -123l-247 -86q196 -224 292.5 -406.5t96.5 -363.5q0 -214 -181 -367q-180 -151 -426 -151q-248 0 -428 157q-178 159 -178 381 zM293 524q0 -140 106 -237q111 -97 260 -97q151 0 259 99t108 241q0 138 -108 215q-109 80 -259 80q-152 0 -262 -84q-104 -82 -104 -217z" />
<glyph unicode="&#xf1;" horiz-adv-x="1304" d="M137 0v1110h246v-84q131 104 322 104q240 0 358.5 -124.5t118.5 -382.5v-623h-246v623q0 142 -71 217t-201 75q-167 0 -281 -102v-813h-246zM244 1229q7 139 70.5 217t166.5 78q71 0 178 -45q110 -43 150 -43q47 0 82.5 35.5t52.5 99.5l115 -15q-7 -133 -71.5 -213.5 t-156.5 -80.5q-68 0 -178 45t-149 45q-104 0 -144 -135z" />
<glyph unicode="&#xf2;" d="M78 557q0 237 178 406q176 167 428 167t428 -167q178 -169 178 -406q0 -234 -178 -403q-177 -168 -428 -168t-428 168q-178 169 -178 403zM236 1561l266 22l260 -352h-156zM317 557q0 -148 107 -252t260 -104q151 0 258 104q109 106 109 252q0 148 -109 254 q-107 104 -258 104q-153 0 -260 -104t-107 -254z" />
<glyph unicode="&#xf3;" d="M78 557q0 237 178 406q176 167 428 167t428 -167q178 -169 178 -406q0 -234 -178 -403q-177 -168 -428 -168t-428 168q-178 169 -178 403zM317 557q0 -148 107 -252t260 -104q151 0 258 104q109 106 109 252q0 148 -109 254q-107 104 -258 104q-153 0 -260 -104 t-107 -254zM604 1231l260 352l266 -22l-370 -330h-156z" />
<glyph unicode="&#xf4;" d="M78 557q0 237 178 406q176 167 428 167t428 -167q178 -169 178 -406q0 -234 -178 -403q-177 -168 -428 -168t-428 168q-178 169 -178 403zM307 1231l297 309h152l299 -309h-176l-199 186l-199 -186h-174zM317 557q0 -148 107 -252t260 -104q151 0 258 104 q109 106 109 252q0 148 -109 254q-107 104 -258 104q-153 0 -260 -104t-107 -254z" />
<glyph unicode="&#xf5;" d="M78 557q0 237 178 406q176 167 428 167t428 -167q178 -169 178 -406q0 -234 -178 -403q-177 -168 -428 -168t-428 168q-178 169 -178 403zM274 1229q7 139 71 217t167 78q71 0 178 -45q110 -43 150 -43q45 0 81.5 36t53.5 99l115 -15q-7 -133 -71.5 -213.5t-156.5 -80.5 q-70 0 -180 45t-147 45q-103 0 -144 -135zM317 557q0 -148 107 -252t260 -104q151 0 258 104q109 106 109 252q0 148 -109 254q-107 104 -258 104q-153 0 -260 -104t-107 -254z" />
<glyph unicode="&#xf6;" d="M78 557q0 237 178 406q176 167 428 167t428 -167q178 -169 178 -406q0 -234 -178 -403q-177 -168 -428 -168t-428 168q-178 169 -178 403zM317 557q0 -148 107 -252t260 -104q151 0 258 104q109 106 109 252q0 148 -109 254q-107 104 -258 104q-153 0 -260 -104 t-107 -254zM369 1358q0 50 34.5 84.5t85.5 34.5q49 0 84 -34.5t35 -84.5t-35 -85.5t-84 -35.5q-51 0 -85.5 35.5t-34.5 85.5zM751 1358q0 49 35 84q37 35 86 35t84 -35q37 -35 37 -84t-37 -86q-35 -35 -84 -35t-86 35q-35 37 -35 86z" />
<glyph unicode="&#xf7;" horiz-adv-x="1077" d="M90 580v204h901v-204h-901zM399 1157q0 54 38.5 91.5t92.5 37.5t93 -37.5t39 -91.5q0 -55 -39 -93t-93 -38t-92.5 38t-38.5 93zM400 184q0 54 38 92t92.5 38t92.5 -38t38 -92t-38 -92t-92.5 -38t-92.5 38t-38 92z" />
<glyph unicode="&#xf8;" d="M78 557q0 237 178 406q176 167 428 167q184 0 336 -96l74 84h182l-152 -170q166 -166 166 -391q0 -234 -178 -403q-177 -168 -428 -168q-183 0 -332 94l-73 -80h-183l148 166q-166 163 -166 391zM317 557q0 -124 86 -213l463 520q-77 51 -182 51q-153 0 -260 -104 t-107 -254zM504 250q76 -49 180 -49q151 0 258 104q109 106 109 252q0 120 -88 211z" />
<glyph unicode="&#xf9;" horiz-adv-x="1312" d="M123 494v616h244v-616q0 -141 72 -217t202 -76q175 0 289 102v807h246v-1110h-246v90q-134 -104 -330 -104q-240 0 -358.5 125t-118.5 383zM213 1561l266 22l260 -352h-155z" />
<glyph unicode="&#xfa;" horiz-adv-x="1312" d="M123 494v616h244v-616q0 -141 72 -217t202 -76q175 0 289 102v807h246v-1110h-246v90q-134 -104 -330 -104q-240 0 -358.5 125t-118.5 383zM582 1231l260 352l266 -22l-371 -330h-155z" />
<glyph unicode="&#xfb;" horiz-adv-x="1312" d="M123 494v616h244v-616q0 -141 72 -217t202 -76q175 0 289 102v807h246v-1110h-246v90q-134 -104 -330 -104q-240 0 -358.5 125t-118.5 383zM274 1231l297 309h152l299 -309h-176l-199 186l-198 -186h-175z" />
<glyph unicode="&#xfc;" horiz-adv-x="1312" d="M123 494v616h244v-616q0 -141 72 -217t202 -76q175 0 289 102v807h246v-1110h-246v90q-134 -104 -330 -104q-240 0 -358.5 125t-118.5 383zM336 1358q0 50 35 84.5t86 34.5q49 0 83.5 -34.5t34.5 -84.5t-34.5 -85.5t-83.5 -35.5q-51 0 -86 35.5t-35 85.5zM719 1358 q0 49 35 84q37 35 86 35t84 -35q37 -35 37 -84t-37 -86q-35 -35 -84 -35t-86 35q-35 37 -35 86z" />
<glyph unicode="&#xfd;" horiz-adv-x="1265" d="M43 1110h258l328 -815h26l312 815h250l-461 -1169q-47 -115 -142 -189q-174 -135 -434 -135q-82 0 -102 2l31 180h28q298 0 387 201h-30zM565 1231l260 352l267 -22l-371 -330h-156z" />
<glyph unicode="&#xfe;" horiz-adv-x="1378" d="M137 -358v1902h246v-514q141 100 344 100q240 0 401 -161q164 -159 164 -412q0 -246 -164 -410q-161 -161 -401 -161q-189 0 -344 96v-440h-246zM383 309q120 -108 303 -108q157 0 260 100q105 102 105 256q0 152 -105 254q-104 104 -260 104q-184 0 -303 -110v-496z" />
<glyph unicode="&#xff;" horiz-adv-x="1265" d="M43 1110h258l328 -815h26l312 815h250l-461 -1169q-47 -115 -142 -189q-174 -135 -434 -135q-82 0 -102 2l31 180h28q298 0 387 201h-30zM328 1358q0 50 35 84.5t86 34.5q49 0 83.5 -34.5t34.5 -84.5t-34.5 -85.5t-83.5 -35.5q-51 0 -86 35.5t-35 85.5zM710 1358 q0 49 35 84q37 35 86 35t84 -35q37 -35 37 -84t-37 -86q-35 -35 -84 -35t-86 35q-35 37 -35 86z" />
<glyph unicode="&#x152;" horiz-adv-x="2142" d="M96 721q0 299 228 510q233 213 553 213h1130v-213h-797v-428h670v-205h-670v-385h840v-213h-1200q-313 0 -535 213q-219 213 -219 508zM346 721q0 -166 82 -285q154 -223 463 -223h74v1018h-74q-230 0 -387 -133q-158 -134 -158 -377z" />
<glyph unicode="&#x153;" horiz-adv-x="2232" d="M78 557q0 236 176 406q173 167 428 167q147 0 270 -65t193 -176q76 114 198.5 177.5t270.5 63.5q249 0 391 -161q147 -164 147 -418l-2 -66h-860q27 -128 129 -211q100 -81 230 -81q197 0 305 147l157 -129q-79 -105 -209.5 -165t-287.5 -60q-150 0 -271.5 63.5 t-197.5 177.5q-72 -113 -196 -178t-271 -65q-252 0 -426 168t-174 405zM313 557q0 -149 107 -256q107 -104 260 -104q157 0 258 104q104 104 104 256q0 151 -106 254q-104 107 -258 107q-152 0 -260 -105q-105 -105 -105 -256zM1294 657h623q-12 129 -89 205t-214 76 q-121 0 -208.5 -78.5t-111.5 -202.5z" />
<glyph unicode="&#x178;" horiz-adv-x="1411" d="M23 1444h286l398 -688l395 688h289l-560 -952v-492h-251v492zM395 1667q0 50 35 84.5t86 34.5q50 0 84.5 -35t34.5 -84q0 -50 -35 -85.5t-84 -35.5q-51 0 -86 35.5t-35 85.5zM778 1667q0 49 35 84q37 35 86 35t84 -35q37 -35 37 -84t-37 -86q-35 -35 -84 -35t-86 35 q-35 37 -35 86z" />
<glyph unicode="&#x2c6;" horiz-adv-x="1024" d="M135 1540l297 309h152l299 -309h-176l-199 186l-199 -186h-174z" />
<glyph unicode="&#x2dc;" horiz-adv-x="1024" d="M98 1538q7 139 71 217t167 78q71 0 178 -45q110 -43 150 -43q45 0 81.5 36t53.5 99l114 -14q-7 -133 -71 -214t-156 -81q-70 0 -180 45t-148 45q-102 0 -143 -135z" />
<glyph unicode="&#x2000;" horiz-adv-x="959" />
<glyph unicode="&#x2001;" horiz-adv-x="1919" />
<glyph unicode="&#x2002;" horiz-adv-x="959" />
<glyph unicode="&#x2003;" horiz-adv-x="1919" />
<glyph unicode="&#x2004;" horiz-adv-x="639" />
<glyph unicode="&#x2005;" horiz-adv-x="479" />
<glyph unicode="&#x2006;" horiz-adv-x="319" />
<glyph unicode="&#x2007;" horiz-adv-x="319" />
<glyph unicode="&#x2008;" horiz-adv-x="239" />
<glyph unicode="&#x2009;" horiz-adv-x="383" />
<glyph unicode="&#x200a;" horiz-adv-x="106" />
<glyph unicode="&#x2010;" horiz-adv-x="835" d="M90 580v202h655v-202h-655z" />
<glyph unicode="&#x2011;" horiz-adv-x="835" d="M90 580v202h655v-202h-655z" />
<glyph unicode="&#x2012;" horiz-adv-x="835" d="M90 580v202h655v-202h-655z" />
<glyph unicode="&#x2013;" horiz-adv-x="1081" d="M90 580v202h899v-202h-899z" />
<glyph unicode="&#x2014;" horiz-adv-x="1839" d="M90 580v202h1657v-202h-1657z" />
<glyph unicode="&#x2018;" horiz-adv-x="485" d="M98 1126q0 46 8 87.5t29.5 85t54 74.5t87 51t124.5 20l33 -98q-166 -3 -178 -125q49 -7 81 -45t32 -89q0 -55 -39.5 -94t-93.5 -39q-66 0 -102 45t-36 127z" />
<glyph unicode="&#x2019;" horiz-adv-x="471" d="M53 1053q166 3 178 125q-48 8 -80 45.5t-32 87.5q0 55 39.5 95t93.5 40q63 0 100 -46.5t37 -127.5q0 -129 -70 -223q-71 -95 -231 -95z" />
<glyph unicode="&#x201a;" horiz-adv-x="489" d="M33 -125q166 3 178 125q-48 8 -80.5 45.5t-32.5 87.5q0 55 39.5 94t93.5 39q66 0 102 -45t36 -127q0 -127 -70 -221q-72 -96 -231 -96z" />
<glyph unicode="&#x201c;" horiz-adv-x="903" d="M90 1122q0 46 8 87.5t29.5 85t54 74.5t87 51t124.5 20l33 -99q-166 -3 -178 -124q48 -8 80 -45.5t32 -88.5q0 -55 -39.5 -95t-93.5 -40q-63 0 -100 46.5t-37 127.5zM516 1122q0 127 70 221q72 97 231 97l35 -99q-166 -3 -178 -124q47 -8 78.5 -45.5t31.5 -88.5 q0 -56 -38.5 -95.5t-92.5 -39.5q-63 0 -100 46.5t-37 127.5z" />
<glyph unicode="&#x201d;" horiz-adv-x="894" d="M57 1053q167 3 179 125q-48 8 -79.5 45t-31.5 88q0 56 38.5 95.5t92.5 39.5q63 0 100 -46.5t37 -127.5q0 -131 -69 -223q-71 -95 -232 -95zM483 1053q167 3 179 125q-48 8 -80.5 45.5t-32.5 87.5q0 55 39.5 95t93.5 40q63 0 100 -46.5t37 -127.5q0 -46 -8 -87.5 t-29.5 -85t-54 -74.5t-87 -51t-124.5 -20z" />
<glyph unicode="&#x201e;" horiz-adv-x="880" d="M37 -125q167 3 176 125q-47 8 -79 46t-32 87q0 55 40 94t94 39q66 0 101.5 -45t35.5 -127q0 -58 -14 -110t-46 -100.5t-94.5 -77.5t-148.5 -29zM461 -125q169 3 178 125q-48 8 -79.5 45t-31.5 88q0 55 38.5 94t92.5 39q66 0 102 -45t36 -127q0 -127 -70 -221 q-72 -96 -231 -96z" />
<glyph unicode="&#x2022;" horiz-adv-x="903" d="M197 721q0 105 73 178q77 74 181 74t178 -74q76 -73 76 -178q0 -107 -76 -180q-74 -74 -178 -74t-181 74q-73 73 -73 180z" />
<glyph unicode="&#x2026;" horiz-adv-x="1402" d="M80.5 154.5q6.5 43.5 38.5 72.5q30 34 74 41t82 -9t64 -52t23 -80q0 -57 -42 -99t-99 -42q-44 -3 -80 23t-51.5 64t-9 81.5zM555.5 154.5q6.5 43.5 38.5 72.5q30 34 74.5 41t82.5 -9t64 -52t23 -80q0 -57 -42.5 -99t-99.5 -42q-44 -3 -80 23t-51.5 64t-9 81.5zM1032 127 q0 60 42 101.5t102 41.5t101.5 -41.5t41.5 -101.5t-41.5 -100.5t-101.5 -40.5t-102 42t-42 99z" />
<glyph unicode="&#x202f;" horiz-adv-x="383" />
<glyph unicode="&#x2039;" horiz-adv-x="669" d="M63 545l359 528l158 -115l-295 -413l295 -412l-158 -117z" />
<glyph unicode="&#x203a;" horiz-adv-x="649" d="M66 133l294 412l-294 413l157 115l359 -528l-359 -529z" />
<glyph unicode="&#x205f;" horiz-adv-x="479" />
<glyph unicode="&#x20ac;" horiz-adv-x="1441" d="M72 518v123h137q-7 81 0 156h-137v121h155q56 244 232 389q179 147 411 147q160 0 297.5 -70.5t229.5 -199.5l-172 -146q-144 187 -355 187q-126 0 -228.5 -85t-145.5 -222h452v-121h-485q-7 -75 0 -156h485v-123h-452q41 -136 144 -219.5t230 -83.5q211 0 355 184 l172 -143q-91 -129 -228.5 -199.5t-298.5 -70.5q-231 0 -411 145q-177 145 -232 387h-155z" />
<glyph unicode="&#x2122;" horiz-adv-x="1423" d="M33 1331v101h555v-101h-215v-538h-123v538h-217zM688 793v639h57l279 -381l281 381h57v-639h-121v376l-217 -297l-215 297v-376h-121z" />
<glyph unicode="&#x25fc;" horiz-adv-x="1105" d="M0 0v1106h1106v-1106h-1106z" />
</font>
</defs>
</svg>
